# xmcd CD database file
#
# Track frame offsets:
#	150
#	20765
#	45810
#	65058
#	88735
#	106716
#	128540
#	156153
#	172072
#	187562
#	212339
#	231115
#	255049
#
# Disc length: 3711 seconds
#
# Revision: 0
# Processed by: cddbd v1.5.2PL0 Copyright (c) Steve Scherf et al.
# Submitted via: CDex 1.51
#
DISCID=940e7d0d
DTITLE=Lolo Ortega - Mr. Bluesman
DYEAR=2012
DGENRE=Blues
TTITLE0=Begoña city
TTITLE1=Dangerous mood
TTITLE2=Born in Chcago
TTITLE3=Mr. Bluesman
TTITLE4=Born under a band sig
TTITLE5=La carta
TTITLE6=Double trouble
TTITLE7=La multa
TTITLE8=Hard times
TTITLE9=Lolo's funk
TTITLE10=Messin with the kid
TTITLE11=Infraganti
TTITLE12=Tú para mí
EXTD=YEAR: 2012
EXTT0=
EXTT1=
EXTT2=
EXTT3=
EXTT4=
EXTT5=
EXTT6=
EXTT7=
EXTT8=
EXTT9=
EXTT10=
EXTT11=
EXTT12=
PLAYORDER=
